# xmcd CD database file
# Copyright (C) 1997 Ti Kan
# 
# Track frame offsets:
#     150
#     18092
#     32094
#     70237
#     82545
#     93895
#     115107
#     122732
#     162100
#     179857
#     193390
#     206725
# 
# Disc length: 3247 seconds
# 
# Revision: 1
# Processed by: cddbd v1.4b41PL1 Copyright (c) Steve Scherf et al.
# Submitted via: DiscPlay 4.0.3
# 
DISCID=9a0cad0c
DTITLE=Goose Creek Symphony - Acoustic Goose
DYEAR=1900
DGENRE=
TTITLE0=Welcome to Goose Creek
TTITLE1=Still Dumb
TTITLE2=Medley: The Corn Won't Grow so Rock and Roll - Guitars Pickin' and Fiddl
TTITLE2=es Playin' - On the Right Track
TTITLE3=Whupin' It
TTITLE4=Miana and Me
TTITLE5=Words of Ernest
TTITLE6=The Gospel
TTITLE7=Medley: Saturday Night at the Grange - Lil' Liza Jane - Everybody wa
TTITLE7=nts to Boogie - Plans of the Lord
TTITLE8=That's the World We're Livin' In Today
TTITLE9=Eight Years Old
TTITLE10=Rush On Love
TTITLE11=Talk Ablout Goose Creek and Other Important Places
EXTD=
EXTT0=
EXTT1=
EXTT2=
EXTT3=
EXTT4=
EXTT5=
EXTT6=
EXTT7=
EXTT8=
EXTT9=
EXTT10=
EXTT11=
PLAYORDER=
